<svg width="28" height="28" fill="none" xmlns="http://www.w3.org/2000/svg"><path d="M14 0C6.266 0 0 6.266 0 14s6.266 14 14 14 14-6.266 14-14S21.734 0 14 0zM8.687 20.118a.967.967 0 01-.84.478.932.932 0 01-.492-.135.968.968 0 01-.35-1.325l.956-1.59a.545.545 0 01.47-.268h.142c.693 0 1.178.417 1.32.82l-1.206 2.02zm8.091-3.125L10.52 17H6.36a.966.966 0 01-.969-1.01c.02-.524.478-.922 1-.922h3.015l3.575-6.084-1.158-1.972c-.26-.45-.145-1.042.302-1.324a.973.973 0 011.367.323l.619 1.056h.006l.62-1.056a.974.974 0 011.363-.324c.444.283.559.875.296 1.327L15.24 8.986l-1.125 1.918-2.443 4.166v.007h3.6c.451 0 1.017.242 1.246.632l.02.041c.202.343.316.579.316.922a.864.864 0 01-.073.323l-.002-.002zm4.86.007h-1.695v.007l1.239 2.107a.988.988 0 01-.323 1.345.97.97 0 01-.989.015.98.98 0 01-.358-.349l-1.83-3.116-1.138-1.938-1.467-2.508a2.396 2.396 0 01-.04-2.376c.29-.511.511-.646.511-.646l3.264 5.521h2.807c.525 0 .976.404 1 .922A.98.98 0 0121.64 17h-.002z" fill="#fff"/></svg>