<svg version="1.1" id="Warstwa_1" xmlns="http://www.w3.org/2000/svg" x="0" y="0" viewBox="0 0 48 55" xml:space="preserve"><style>.st0{fill:#ed4c5c}</style><path class="st0" d="M44.9 19.3h-1.3v-6.4c0-.3-.1-.5-.3-.7L32.9.4c-.1-.1-.3-.2-.5-.3H6.5c-1.1-.1-2.1.9-2.1 2v17.2H3.1c-1.7 0-3 1.4-3 3V38c0 1.7 1.4 3 3 3h1.3v10.8c0 1.2.9 2.1 2.1 2.1h34.9c1.2 0 2.1-1 2.1-2.1V41.1h1.3c1.7 0 3-1.4 3-3V22.3c.1-1.6-1.2-3-2.9-3zM6.5 2.1H31V13c0 .6.5 1.1 1.1 1.1h9.4v5.3h-35V2.1zm26 28.2c0 3-1.1 5.1-2.6 6.4-1.7 1.4-4.2 2-7.3 2-1.9 0-3.2-.1-4.1-.2V23c1.3-.2 3-.3 4.8-.3 3 0 4.9.5 6.5 1.7 1.7 1.2 2.7 3.1 2.7 5.9zM4.9 38.6V23c1.1-.2 2.7-.3 4.8-.3 2.2 0 3.8.4 4.8 1.3 1 .8 1.7 2.1 1.7 3.7 0 1.5-.5 2.9-1.5 3.8-1.2 1.1-3 1.7-5.1 1.7-.5 0-.9 0-1.2-.1v5.7H4.9zm36.6 12.7h-35V41.1h34.9v10.2zm3-25.6h-6.1v3.6h5.7v2.9h-5.7v6.4h-3.6V22.8h9.7v2.9z"/><path class="st0" d="M12.6 27.4c0-1.5-1-2.3-2.8-2.3-.7 0-1.2.1-1.5.1v4.7c.4 0 .7.1 1.3.1 1.9 0 3-1 3-2.6zm11.5-2c-.8 0-1.3.1-1.6.1v10.3c.3.1.8.1 1.2.1 3.2 0 5.3-1.8 5.3-5.5.1-3.2-1.9-5-4.9-5z"/></svg>